<svg xmlns="http://www.w3.org/2000/svg" viewBox="0 0 1011.816 199.071"><defs><style>.cls-1{fill:#ffffff;}</style></defs><g id="Camada_2" data-name="Camada 2"><g id="Camada_1-2" data-name="Camada 1"><path class="cls-1" d="M250.134,0H134.519a3.074,3.074,0,0,0-1.17.248L12.072,52.744a19.736,19.736,0,0,0-11,11.8C-.2,68.257.014,72.033.014,75.966V196a3.072,3.072,0,0,0,3.076,3.069H53.839c40.822,0,71.7-19.538,80.68-50.328v50.328H250.134A24.274,24.274,0,0,0,274.409,174.8V24.275A24.275,24.275,0,0,0,250.134,0ZM53.839,192.933H6.164V85.69a25.371,25.371,0,0,0,5.6,3.8l117.91,53.421C123.133,173.361,93.589,192.933,53.839,192.933Zm116.921-5.117a5.071,5.071,0,0,1-10.142,0V158.63a5.071,5.071,0,1,1,10.142,0Zm-5.071-35.724a5.071,5.071,0,1,1,5.071-5.071A5.071,5.071,0,0,1,165.689,152.092Zm20.867,35.724a5.071,5.071,0,1,1-10.142,0V151.024a5.071,5.071,0,0,1,10.142,0Zm0-48.768a5.071,5.071,0,1,1-10.142,0v-5.7a5.071,5.071,0,0,1,10.142,0Zm16.378,48.768a5.071,5.071,0,0,1-10.142,0V163.7a5.071,5.071,0,0,1,10.142,0Zm0-35.951a5.071,5.071,0,0,1-10.142,0V137.623a5.071,5.071,0,0,1,10.142,0Zm15.31,35.951a5.071,5.071,0,0,1-10.142,0V127.387a5.071,5.071,0,0,1,10.142,0Zm15.59,0a5.071,5.071,0,0,1-10.142,0v-64.7a5.071,5.071,0,0,1,10.142,0Zm-5.071-72.447a5.072,5.072,0,1,1,5.071-5.072A5.071,5.071,0,0,1,228.763,115.369Zm20.483,72.447a5.071,5.071,0,0,1-10.142,0V133.795a5.071,5.071,0,0,1,10.142,0Zm0-66.422a5.071,5.071,0,0,1-10.142,0v-5.7a5.071,5.071,0,0,1,10.142,0ZM269.09,70.818a3.072,3.072,0,0,1-1.8,2.82L135.833,144.569c-.084.038-1.191.616-1.305.661v-6.843l.036.017,123.891-67.5L134.564,6.424l-.045.019V138.364L14.3,83.9a13.578,13.578,0,0,1-6.442-5.913,13.934,13.934,0,0,1-1.172-2.816s-.323-1.228-.457-2.031c-.022-.134-.088-1.059-.088-1.059a14.3,14.3,0,0,1,.743-5.552,13.659,13.659,0,0,1,7.633-8.15L134.528,6.429V.014a3.068,3.068,0,0,1,1.258.249L267.242,68.028A3.07,3.07,0,0,1,269.09,70.818Z"/><path class="cls-1" d="M342.542,97.218a102.448,102.448,0,0,0-12.183-4.852,57.544,57.544,0,0,1-11.024-4.519A6.487,6.487,0,0,1,315.806,82a6.556,6.556,0,0,1,2.1-5.236,8.1,8.1,0,0,1,5.513-1.82,9.716,9.716,0,0,1,6.5,2.149,7.987,7.987,0,0,1,2.756,5.9h20.4q-.552-10.915-8.378-17.033t-20.617-6.119q-12.568,0-20.4,6.119t-7.827,16.922q0,7.278,3.417,11.8a22.6,22.6,0,0,0,8.159,6.836,86.791,86.791,0,0,0,12.237,4.629,76.836,76.836,0,0,1,7.993,2.757,15.615,15.615,0,0,1,4.741,3.087,6.337,6.337,0,0,1,1.929,4.74,6.456,6.456,0,0,1-2.425,5.348,10.351,10.351,0,0,1-6.615,1.93,9.567,9.567,0,0,1-6.615-2.261,9.725,9.725,0,0,1-2.977-6.56H295.631a22.28,22.28,0,0,0,4.245,13.01,24.783,24.783,0,0,0,10.749,8.158,39.789,39.789,0,0,0,15.214,2.756,33.389,33.389,0,0,0,15.1-3.2,23.55,23.55,0,0,0,9.757-8.6,22.279,22.279,0,0,0,3.362-12.016q0-6.946-3.418-11.357A23.2,23.2,0,0,0,342.542,97.218Z"/><path class="cls-1" d="M422.249,64.915a42.013,42.013,0,0,0-40.019,0,38.032,38.032,0,0,0-14.443,14.112,39.3,39.3,0,0,0-5.347,20.4,39.587,39.587,0,0,0,5.347,20.451A37.893,37.893,0,0,0,382.23,134.04a41.9,41.9,0,0,0,39.964,0,37.614,37.614,0,0,0,14.332-14.166,39.9,39.9,0,0,0,5.292-20.451,39.959,39.959,0,0,0-5.236-20.4A37.247,37.247,0,0,0,422.249,64.915Zm-5.181,50.824q-5.568,6.175-14.828,6.174-9.372,0-14.939-6.118t-5.567-16.372q0-10.362,5.567-16.427t14.939-6.064q9.26,0,14.828,6.12t5.568,16.371Q422.636,109.568,417.068,115.739Z"/><path class="cls-1" d="M498.485,64.144q-6.4-3.2-15.656-3.2H452.291V138.34h18.853V110.557h11.685q9.481,0,15.877-3.417a22.7,22.7,0,0,0,9.481-8.986,24.928,24.928,0,0,0,3.087-12.291,25.636,25.636,0,0,0-3.2-12.9A21.985,21.985,0,0,0,498.485,64.144Zm-9.041,28.885q-2.646,2.537-8.048,2.535H471.144v-19.4H481.4q5.4,0,8.048,2.535a9.458,9.458,0,0,1,2.646,7.167A9.453,9.453,0,0,1,489.444,93.029Z"/><polygon class="cls-1" points="569.263 91.264 539.937 91.264 539.937 60.946 521.085 60.946 521.085 138.34 539.937 138.34 539.937 106.479 569.263 106.479 569.263 138.34 588.115 138.34 588.115 60.946 569.263 60.946 569.263 91.264"/><path class="cls-1" d="M658.286,64.915a42.013,42.013,0,0,0-40.019,0,38.032,38.032,0,0,0-14.443,14.112,39.294,39.294,0,0,0-5.347,20.4,39.578,39.578,0,0,0,5.347,20.451,37.893,37.893,0,0,0,14.443,14.166,41.9,41.9,0,0,0,39.964,0,37.621,37.621,0,0,0,14.332-14.166,39.909,39.909,0,0,0,5.292-20.451,39.96,39.96,0,0,0-5.237-20.4A37.237,37.237,0,0,0,658.286,64.915Zm-5.181,50.824q-5.569,6.175-14.829,6.174-9.372,0-14.938-6.118T617.77,99.423q0-10.362,5.568-16.427t14.938-6.064q9.261,0,14.829,6.12t5.567,16.371Q658.672,109.568,653.105,115.739Z"/><path class="cls-1" d="M733.034,97.218a102.379,102.379,0,0,0-12.183-4.852,57.615,57.615,0,0,1-11.025-4.519A6.489,6.489,0,0,1,706.3,82a6.556,6.556,0,0,1,2.1-5.236,8.1,8.1,0,0,1,5.511-1.82,9.716,9.716,0,0,1,6.5,2.149,7.991,7.991,0,0,1,2.757,5.9h20.395q-.552-10.915-8.379-17.033t-20.616-6.119q-12.567,0-20.4,6.119t-7.828,16.922q0,7.278,3.418,11.8a22.6,22.6,0,0,0,8.16,6.836,86.773,86.773,0,0,0,12.236,4.629,76.836,76.836,0,0,1,7.993,2.757,15.6,15.6,0,0,1,4.74,3.087,6.338,6.338,0,0,1,1.93,4.74,6.451,6.451,0,0,1-2.426,5.348,10.342,10.342,0,0,1-6.614,1.93,9.567,9.567,0,0,1-6.615-2.261,9.729,9.729,0,0,1-2.976-6.56H686.124a22.272,22.272,0,0,0,4.244,13.01,24.785,24.785,0,0,0,10.748,8.158,39.8,39.8,0,0,0,15.215,2.756,33.386,33.386,0,0,0,15.1-3.2,23.55,23.55,0,0,0,9.757-8.6,22.271,22.271,0,0,0,3.363-12.016q0-6.946-3.418-11.357A23.224,23.224,0,0,0,733.034,97.218Z"/><polygon class="cls-1" points="817.672 62.054 780.299 130.407 767.18 62.054 758.801 62.054 774.345 139.117 783.166 139.117 826.051 62.054 817.672 62.054"/><polygon class="cls-1" points="823.956 139.117 831.674 139.117 845.234 62.054 837.517 62.054 823.956 139.117"/><polygon class="cls-1" points="849.201 139.117 889.442 139.117 890.544 132.943 858.022 132.943 863.203 103.397 892.528 103.397 893.521 97.224 864.306 97.224 869.377 68.118 901.899 68.118 903.112 61.944 862.762 61.944 849.201 139.117"/><polygon class="cls-1" points="1003.437 62.054 973.891 129.415 966.724 62.054 958.015 62.054 926.373 129.194 920.751 62.054 912.373 62.054 920.089 139.227 928.578 139.117 959.999 73.63 967.716 139.117 976.315 139.117 1011.816 62.054 1003.437 62.054"/></g></g></svg>