<svg xmlns="http://www.w3.org/2000/svg" viewBox="0 0 523.281 379.617"><defs><style>.cls-1{fill:#ffffff;}</style></defs><g id="Camada_2" data-name="Camada 2"><g id="Camada_1-2" data-name="Camada 1"><path class="cls-1" d="M476.991,0H256.52a5.847,5.847,0,0,0-2.231.475L23.021,100.58a37.634,37.634,0,0,0-20.986,22.5C-.391,130.162.028,137.362.028,144.862v228.9a5.858,5.858,0,0,0,5.863,5.852h96.777c77.844,0,136.727-37.258,153.852-95.974v95.974H476.991a46.29,46.29,0,0,0,46.29-46.29V46.29A46.29,46.29,0,0,0,476.991,0ZM102.668,367.912H11.755V163.405a48.325,48.325,0,0,0,10.672,7.241L247.276,272.517C234.808,330.589,178.469,367.912,102.668,367.912Zm222.961-9.758a9.67,9.67,0,1,1-19.34,0V302.5a9.67,9.67,0,1,1,19.34,0Zm-9.67-68.124a9.67,9.67,0,1,1,9.67-9.67A9.669,9.669,0,0,1,315.959,290.03Zm39.792,68.124a9.671,9.671,0,1,1-19.341,0V287.993a9.671,9.671,0,0,1,19.341,0Zm0-93a9.671,9.671,0,0,1-19.341,0V254.291a9.671,9.671,0,0,1,19.341,0Zm31.232,93a9.67,9.67,0,1,1-19.34,0V312.169a9.67,9.67,0,0,1,19.34,0Zm0-68.557a9.67,9.67,0,0,1-19.34,0V262.438a9.67,9.67,0,0,1,19.34,0Zm29.2,68.557a9.671,9.671,0,1,1-19.341,0V242.919a9.671,9.671,0,0,1,19.341,0Zm29.728,0a9.671,9.671,0,1,1-19.341,0V234.772a9.671,9.671,0,0,1,19.341,0ZM436.237,220a9.671,9.671,0,1,1,9.67-9.67A9.671,9.671,0,0,1,436.237,220ZM475.3,358.154a9.67,9.67,0,1,1-19.34,0V255.139a9.67,9.67,0,1,1,19.34,0Zm0-126.664a9.67,9.67,0,1,1-19.34,0V220.626a9.67,9.67,0,1,1,19.34,0Zm34.409-91.067L259.025,275.684c-.161.073-2.27,1.176-2.489,1.261V263.9l.07.031,236.251-128.71L256.606,12.25l-.086.037V263.852L27.274,159.987A25.906,25.906,0,0,1,14.99,148.711a26.692,26.692,0,0,1-2.235-5.369s-.615-2.342-.871-3.874c-.042-.256-.168-2.019-.168-2.019a27.281,27.281,0,0,1,1.417-10.587,26.046,26.046,0,0,1,14.555-15.543L256.536,12.261V.027a5.833,5.833,0,0,1,2.4.475L509.614,129.724a5.853,5.853,0,0,1,.092,10.7Z"/></g></g></svg>